<?xml version="1.0" encoding="UTF-8"?>
<svg xmlns="http://www.w3.org/2000/svg" xmlns:xlink="http://www.w3.org/1999/xlink" width="612pt" height="551pt" viewBox="0 0 612 551" version="1.1">
<g id="surface1">
<path style=" stroke:none;fill-rule:evenodd;fill:rgb(15.696716%,8.616638%,43.138123%);fill-opacity:1;" d="M 315.136719 450.183594 C 399.585938 438.78125 483.574219 425.050781 565.214844 399.796875 C 601.6875 388.511719 637.246094 374.949219 669.621094 354.210938 C 682.300781 346.085938 693.980469 336.78125 703.71875 325.175781 C 725.507813 299.222656 727.695313 269.667969 710.074219 240.601563 C 696.3125 217.90625 676.859375 200.960938 655.453125 185.933594 C 616.574219 158.636719 572.777344 142.769531 527.285156 130.925781 C 493.414063 122.109375 458.957031 116.609375 424.179688 112.839844 C 367.789063 106.730469 311.226563 104.5 254.550781 105.273438 C 200.890625 106.007813 147.367188 109.277344 94.125 116.160156 C 42.421875 122.84375 -8.710938 132.371094 -58.273438 148.988281 C -87.878906 158.914063 -116.382813 171.222656 -141.960938 189.515625 C -157.734375 200.796875 -171.289063 214.183594 -180.464844 231.453125 C -193.875 256.691406 -193.078125 282.601563 -183.300781 308.71875 C -180.933594 315.054688 -178.03125 321.1875 -175.386719 327.382813 C -175.777344 327.980469 -176.308594 327.90625 -176.652344 327.546875 C -200.804688 302.460938 -221.496094 275.117188 -231.027344 240.9375 C -240.753906 206.0625 -232.1875 175.179688 -209.328125 147.785156 C -194.320313 129.796875 -175.925781 115.855469 -155.960938 103.90625 C -114.5 79.085938 -69.40625 63.128906 -23.199219 49.976563 C 25.351563 36.152344 74.78125 26.46875 124.648438 18.890625 C 168.777344 12.183594 213.136719 7.507813 257.636719 4.199219 C 275.402344 2.875 293.203125 2.019531 310.992188 0.953125 C 314.070313 0.0273438 317.226563 0.746094 320.332031 0.515625 C 322.214844 0.269531 324.191406 1.058594 326 0 L 339 0 C 345.667969 0.832031 352.332031 0.832031 359 0 L 411 0 C 416.765625 1.128906 422.589844 0.21875 428.375 0.515625 C 430.578125 0.273438 432.859375 1.039063 435 0 L 443 0 C 446.332031 0.847656 449.667969 0.847656 453 0 L 454 0 C 456.582031 2.394531 459.863281 1.480469 462.8125 1.644531 C 537.273438 5.773438 610.273438 17.898438 680.984375 42.070313 C 733.386719 59.980469 781.820313 85.472656 825.027344 120.3125 C 848.085938 138.910156 868.761719 159.839844 883.519531 185.894531 C 892.519531 201.78125 899.273438 218.332031 895.652344 237.226563 C 892.132813 255.601563 882.675781 270.984375 870.691406 284.875 C 846.726563 312.652344 816.761719 332.699219 784.929688 350.140625 C 729.851563 380.308594 670.972656 400.527344 610.339844 415.964844 C 557.382813 429.449219 503.644531 438.589844 449.292969 444.253906 C 412.332031 448.105469 375.304688 450.664063 338.140625 451.15625 C 331.019531 451.894531 323.875 451.308594 316.742188 451.460938 C 315.894531 451.476563 315.054688 451.382813 315.136719 450.183594 "/>
<path style=" stroke:none;fill-rule:evenodd;fill:rgb(22.363281%,15.696716%,47.851563%);fill-opacity:1;" d="M 359 0 C 352.332031 1.640625 345.667969 1.667969 339 0 "/>
<path style=" stroke:none;fill-rule:evenodd;fill:rgb(23.143005%,16.479492%,48.242188%);fill-opacity:1;" d="M 429.070313 0.9375 C 423.050781 0.519531 416.929688 2.121094 411 0 L 429 0 C 429.3125 0.1875 429.425781 0.386719 429.34375 0.601563 C 429.257813 0.824219 429.167969 0.9375 429.070313 0.9375 "/>
<path style=" stroke:none;fill-rule:evenodd;fill:rgb(84.375%,82.8125%,89.451599%);fill-opacity:1;" d="M 453 0 C 449.667969 1.851563 446.332031 1.488281 443 0 "/>
<path style=" stroke:none;fill-rule:evenodd;fill:rgb(87.889099%,86.71875%,91.796875%);fill-opacity:1;" d="M 320.964844 0.828125 C 317.640625 0.871094 314.316406 0.910156 310.992188 0.953125 C 311 0.636719 311.003906 0.316406 311 0 L 321 0 C 321.335938 0.199219 321.441406 0.386719 321.316406 0.566406 C 321.199219 0.742188 321.082031 0.828125 320.964844 0.828125 "/>
<path style=" stroke:none;fill-rule:evenodd;fill:rgb(1.960754%,1.960754%,0%);fill-opacity:1;" d="M 258 551 L 258 550 C 261.03125 547.9375 264.039063 547.851563 267.019531 550.101563 C 267.023438 550.402344 267.019531 550.703125 267 551 "/>
<path style=" stroke:none;fill-rule:evenodd;fill:rgb(1.960754%,1.960754%,0%);fill-opacity:1;" d="M 40 551 C 39.984375 550.699219 39.980469 550.398438 39.980469 550.097656 C 42.664063 548 45.347656 547.988281 48.023438 550.109375 C 48.027344 550.40625 48.019531 550.703125 48 551 "/>
<path style=" stroke:none;fill-rule:evenodd;fill:rgb(1.960754%,1.960754%,0%);fill-opacity:1;" d="M 394.019531 550.101563 C 394.023438 550.402344 394.015625 550.699219 394 551 L 387 551 C 386.980469 550.703125 386.972656 550.40625 386.980469 550.105469 C 389.324219 548.148438 391.671875 548.152344 394.019531 550.101563 "/>
<path style=" stroke:none;fill-rule:evenodd;fill:rgb(35.301208%,29.80957%,56.834412%);fill-opacity:1;" d="M 429.070313 0.9375 C 429.03125 0.625 429.007813 0.3125 429 0 L 435 0 C 433.28125 1.941406 431.042969 0.601563 429.070313 0.9375 "/>
<path style=" stroke:none;fill-rule:evenodd;fill:rgb(75.78125%,73.242188%,83.59375%);fill-opacity:1;" d="M 320.964844 0.828125 C 320.980469 0.554688 320.992188 0.277344 321 0 L 326 0 C 324.566406 1.765625 322.6875 0.832031 320.964844 0.828125 "/>
<path style=" stroke:none;fill-rule:evenodd;fill:rgb(85.15625%,14.501953%,11.376953%);fill-opacity:1;" d="M 373.125 179.929688 C 430.1875 185.335938 486.359375 194.523438 538.375 220.378906 C 556.117188 229.195313 572.164063 240.445313 583.648438 257.125 C 596.347656 275.5625 597.480469 294.910156 587.460938 314.726563 C 578.210938 333.019531 563.554688 346.570313 547.125 358.257813 C 510.132813 384.566406 468.339844 400.335938 425.21875 413.011719 C 379.636719 426.410156 333.074219 435.039063 286 441.136719 C 236.246094 447.582031 186.296875 451.164063 136.148438 452.171875 C 134.71875 452.222656 132.945313 453.648438 132.144531 451.171875 C 162.914063 447.785156 193.640625 444.074219 224.171875 438.902344 C 286.296875 428.386719 347.480469 414.296875 405.917969 390.085938 C 434.632813 378.191406 462.0625 363.941406 486.21875 344.078125 C 496.820313 335.359375 506.15625 325.453125 513.449219 313.710938 C 530.515625 286.242188 527.035156 257.855469 503.792969 235.296875 C 488.078125 220.046875 469.160156 210.070313 449.03125 202.171875 C 423.988281 192.351563 397.941406 186.300781 371.4375 182.070313 C 369.300781 181.730469 367.179688 181.285156 365.054688 180.890625 C 367.445313 178.070313 370.386719 179.855469 373.125 179.929688 "/>
<path style=" stroke:none;fill-rule:evenodd;fill:rgb(1.960754%,1.960754%,0%);fill-opacity:1;" d="M 251.425781 199.890625 C 239.585938 226.839844 227.972656 253.273438 216.34375 279.734375 C 218.625 280.933594 219.90625 278.921875 221.371094 277.769531 C 234.589844 267.355469 247.796875 256.933594 260.925781 246.40625 C 263.117188 244.644531 265.28125 243.785156 268.144531 243.820313 C 279.757813 243.960938 291.371094 243.878906 304.347656 243.878906 C 298.34375 248.421875 293.386719 252.183594 288.414063 255.929688 C 276.175781 265.15625 263.984375 274.4375 251.644531 283.527344 C 249.460938 285.136719 248.757813 286.722656 249.035156 289.335938 C 251.3125 310.871094 253.378906 332.429688 255.761719 353.953125 C 256.203125 357.914063 255.796875 359.554688 251.234375 359.289063 C 244.09375 358.871094 236.898438 358.960938 229.746094 359.269531 C 226.066406 359.429688 225.019531 358.398438 224.84375 354.660156 C 224.09375 338.726563 222.949219 322.8125 221.886719 305.921875 C 213.183594 312.40625 205.058594 318.367188 197.078125 324.519531 C 196.015625 325.339844 195.613281 327.078125 195.015625 328.441406 C 190.980469 337.570313 186.964844 346.703125 182.976563 355.855469 C 182.167969 357.707031 181.582031 359.304688 178.882813 359.246094 C 169.726563 359.0625 160.570313 359.179688 151.394531 359.179688 C 150.847656 357.160156 152.066406 355.84375 152.699219 354.40625 C 174.699219 304.296875 196.769531 254.210938 218.65625 204.050781 C 220.105469 200.726563 221.789063 199.710938 225.253906 199.8125 C 233.726563 200.054688 242.210938 199.890625 251.425781 199.890625 "/>
<path style=" stroke:none;fill-rule:evenodd;fill:rgb(1.960754%,1.960754%,0%);fill-opacity:1;" d="M 623.007813 532.816406 C 623.007813 524.699219 623.171875 516.574219 622.925781 508.460938 C 622.828125 505.253906 623.902344 504.59375 626.863281 504.644531 C 629.710938 504.691406 630.984375 505.125 630.925781 508.441406 C 630.71875 520.414063 630.914063 532.398438 630.757813 544.375 C 630.734375 546.007813 632.347656 549.007813 629.191406 549.203125 C 626.382813 549.378906 623 550.859375 620.875 546.90625 C 616.339844 538.476563 611.453125 530.238281 605.878906 522.046875 C 605.878906 529.917969 605.707031 537.792969 605.960938 545.652344 C 606.0625 548.894531 604.90625 549.511719 601.980469 549.472656 C 599.207031 549.4375 597.882813 549.144531 597.949219 545.769531 C 598.1875 533.957031 597.960938 522.140625 598.132813 510.332031 C 598.15625 508.503906 596.425781 505.414063 599.558594 504.90625 C 602.753906 504.386719 606.128906 503.804688 608.3125 508.226563 C 612.488281 516.691406 617.488281 524.75 622.144531 532.972656 C 622.433594 532.921875 622.71875 532.871094 623.007813 532.816406 "/>
<path style=" stroke:none;fill-rule:evenodd;fill:rgb(1.960754%,1.960754%,0%);fill-opacity:1;" d="M 465.128906 521.792969 C 465.128906 530.011719 465.019531 537.910156 465.1875 545.804688 C 465.25 548.585938 464.496094 549.617188 461.605469 549.460938 C 459.054688 549.320313 457.25 549.441406 457.3125 545.871094 C 457.519531 533.714844 457.34375 521.550781 457.449219 509.390625 C 457.464844 507.820313 456.226563 505.078125 458.964844 504.917969 C 461.632813 504.765625 464.894531 503.277344 466.902344 507.011719 C 471.160156 514.917969 475.675781 522.6875 480.089844 530.511719 C 480.484375 531.214844 480.921875 531.890625 482.34375 532.601563 L 482.34375 524.640625 C 482.339844 519.476563 482.429688 514.308594 482.304688 509.148438 C 482.238281 506.339844 482.363281 504.539063 486.160156 504.59375 C 489.652344 504.640625 490.1875 505.898438 490.152344 508.9375 C 490.003906 520.761719 490.171875 532.59375 489.996094 544.417969 C 489.972656 546.015625 491.699219 549.019531 488.464844 549.226563 C 485.632813 549.402344 482.246094 550.808594 480.160156 546.832031 C 476.453125 539.765625 472.382813 532.890625 468.371094 525.984375 C 467.585938 524.628906 467.25 522.878906 465.128906 521.792969 "/>
<path style=" stroke:none;fill-rule:evenodd;fill:rgb(1.960754%,1.960754%,0%);fill-opacity:1;" d="M 394.019531 550.101563 C 391.671875 550.101563 389.328125 550.105469 386.980469 550.105469 C 370.214844 545.394531 363.671875 524.421875 374.71875 510.792969 C 382.847656 500.765625 400.632813 501.636719 405.890625 512.398438 C 406.605469 513.867188 408.949219 516.285156 405.828125 517.226563 C 403.644531 517.886719 400.585938 520.535156 398.488281 516.621094 C 396.183594 512.328125 392.394531 511.25 387.890625 511.921875 C 383.257813 512.613281 380.476563 515.523438 379.140625 519.804688 C 377.824219 524.019531 377.824219 528.324219 378.871094 532.636719 C 381.011719 541.441406 388.519531 544.824219 396.574219 540.761719 C 399.242188 539.414063 400.25 537.542969 399.753906 534.765625 C 399.164063 531.480469 396.425781 532.988281 394.914063 533.136719 C 390.800781 533.542969 389.75 531.921875 390.066406 528.109375 C 390.253906 525.871094 391.066406 525.449219 393.089844 525.304688 C 408.144531 524.226563 407.847656 524.191406 408.230469 539.035156 C 408.402344 545.53125 403.789063 546.449219 399.742188 548.355469 C 397.953125 549.195313 395.933594 549.535156 394.019531 550.101563 "/>
<path style=" stroke:none;fill-rule:evenodd;fill:rgb(1.960754%,1.960754%,0%);fill-opacity:1;" d="M 116.132813 549.132813 C 109.015625 549.699219 109.015625 549.699219 109.015625 542.925781 C 109.015625 531.925781 108.9375 520.929688 109.09375 509.933594 C 109.117188 508.242188 107.589844 505.3125 110.496094 504.921875 C 113.503906 504.523438 116.902344 503.589844 119.023438 507.789063 C 122.921875 515.503906 127.417969 522.914063 131.679688 530.441406 C 132.128906 531.238281 132.675781 531.984375 133.972656 533.964844 C 133.972656 524.644531 134.039063 516.746094 133.933594 508.851563 C 133.898438 506.226563 133.960938 504.476563 137.515625 504.625 C 140.566406 504.75 141.902344 505.195313 141.835938 508.722656 C 141.605469 520.714844 141.796875 532.714844 141.683594 544.707031 C 141.667969 546.265625 142.957031 549.03125 140.207031 549.191406 C 137.378906 549.351563 133.980469 550.882813 131.855469 546.929688 C 127.371094 538.578125 122.570313 530.398438 117.902344 522.148438 C 115.097656 522.5625 116.621094 524.726563 116.5625 525.984375 C 116.191406 533.691406 116.9375 541.425781 116.132813 549.132813 "/>
<path style=" stroke:none;fill-rule:evenodd;fill:rgb(1.960754%,1.960754%,0%);fill-opacity:1;" d="M 354.550781 532.472656 C 354.550781 524.546875 354.660156 516.617188 354.492188 508.695313 C 354.433594 505.832031 354.960938 504.632813 358.234375 504.613281 C 361.628906 504.59375 362.324219 505.734375 362.277344 508.871094 C 362.109375 520.679688 362.289063 532.496094 362.121094 544.304688 C 362.097656 545.945313 363.730469 548.902344 360.664063 549.207031 C 357.660156 549.503906 354.222656 550.652344 352.066406 546.460938 C 348.117188 538.785156 343.625 531.390625 339.34375 523.886719 C 338.953125 523.203125 338.859375 522.257813 337.253906 521.945313 C 337.253906 529.871094 337.109375 537.722656 337.324219 545.5625 C 337.410156 548.636719 336.546875 549.519531 333.457031 549.492188 C 330.433594 549.464844 329.492188 548.699219 329.539063 545.578125 C 329.726563 533.601563 329.542969 521.621094 329.707031 509.644531 C 329.730469 508.039063 328.078125 505.046875 331.367188 504.882813 C 334.042969 504.746094 337.195313 503.414063 339.1875 507.21875 C 343.351563 515.164063 347.9375 522.882813 352.359375 530.691406 C 352.753906 531.390625 353.195313 532.0625 353.617188 532.75 C 353.929688 532.660156 354.238281 532.566406 354.550781 532.472656 "/>
<path style=" stroke:none;fill-rule:evenodd;fill:rgb(1.960754%,1.960754%,0%);fill-opacity:1;" d="M 48.023438 550.109375 C 45.339844 550.105469 42.660156 550.101563 39.980469 550.09375 C 33.597656 548.664063 29.117188 545.160156 27.691406 538.523438 C 27.410156 537.214844 25.707031 534.871094 28.789063 534.871094 C 31.003906 534.871094 33.78125 532.050781 35.5625 536.121094 C 38.078125 541.867188 41.574219 543.546875 46.902344 542.210938 C 49.753906 541.496094 51.71875 539.878906 51.964844 536.8125 C 52.214844 533.699219 50.054688 532.453125 47.53125 531.628906 C 43.898438 530.441406 40.171875 529.488281 36.644531 528.054688 C 30.824219 525.691406 27.820313 520.714844 28.457031 515.15625 C 29.125 509.34375 33.410156 505.160156 39.714844 504.160156 C 48.613281 502.753906 55.730469 505.871094 58.125 512.433594 C 58.710938 514.027344 60.679688 516.652344 57.699219 517.324219 C 55.449219 517.832031 51.988281 519.738281 50.378906 515.855469 C 48.386719 511.050781 44.605469 510.96875 40.410156 511.828125 C 38.28125 512.265625 36.585938 513.414063 36.464844 515.707031 C 36.355469 517.792969 37.882813 519.058594 39.699219 519.699219 C 42.519531 520.695313 45.417969 521.46875 48.269531 522.375 C 57.210938 525.214844 60.414063 529.027344 60.273438 536.613281 C 60.136719 543.804688 56.703125 547.589844 48.023438 550.109375 "/>
<path style=" stroke:none;fill-rule:evenodd;fill:rgb(1.960754%,1.960754%,0%);fill-opacity:1;" d="M 202.34375 505.273438 C 198.117188 510.03125 194.464844 514.570313 190.34375 518.628906 C 187.652344 521.285156 187.84375 523.25 189.757813 526.238281 C 194.40625 533.496094 198.664063 541 203.113281 548.457031 C 195.113281 550.8125 193.34375 550.105469 189.6875 543.332031 C 187.089844 538.515625 184.460938 533.710938 181.828125 528.875 C 176.691406 532.542969 174.003906 536.941406 174.828125 543.328125 C 175.15625 545.878906 176.679688 549.53125 170.945313 549.585938 C 165.019531 549.640625 166.652344 545.996094 166.628906 543.070313 C 166.542969 531.914063 166.683594 520.75 166.539063 509.589844 C 166.5 506.347656 166.660156 504.597656 170.886719 504.550781 C 175.488281 504.5 175.007813 506.925781 174.964844 509.804688 C 174.898438 514.257813 174.949219 518.71875 174.949219 524.417969 C 179.28125 519.328125 183.355469 515.417969 186.347656 510.804688 C 190.226563 504.828125 195.292969 503.640625 202.34375 505.273438 "/>
<path style=" stroke:none;fill-rule:evenodd;fill:rgb(1.960754%,1.960754%,0%);fill-opacity:1;" d="M 208.019531 526.851563 C 208.023438 520.53125 208.105469 514.207031 207.980469 507.882813 C 207.933594 505.558594 208.582031 504.660156 211.039063 504.699219 C 219.191406 504.824219 227.347656 504.890625 235.496094 504.675781 C 238.949219 504.585938 238.558594 506.5625 238.691406 508.800781 C 238.847656 511.382813 238.019531 512.351563 235.347656 512.253906 C 230.527344 512.074219 225.664063 512.550781 220.878906 512.097656 C 216.4375 511.679688 216.28125 513.820313 216.128906 517.285156 C 215.960938 521.226563 217.140625 522.503906 221.078125 522.175781 C 225.375 521.824219 229.730469 522.277344 234.046875 522.039063 C 237.140625 521.867188 237.089844 523.566406 237.0625 525.75 C 237.035156 528.003906 237.351563 530.046875 233.890625 529.855469 C 229.246094 529.601563 224.574219 529.925781 219.921875 529.742188 C 217.1875 529.632813 216.191406 530.351563 216.167969 533.3125 C 216.105469 541.902344 215.953125 541.898438 224.355469 541.898438 C 227.851563 541.898438 231.347656 541.960938 234.839844 541.878906 C 237.457031 541.816406 239.546875 541.554688 239.484375 545.546875 C 239.425781 549.171875 237.941406 549.488281 235.039063 549.433594 C 227.21875 549.289063 219.394531 549.265625 211.578125 549.445313 C 208.742188 549.507813 207.867188 548.664063 207.957031 545.820313 C 208.160156 539.503906 208.019531 533.175781 208.019531 526.851563 "/>
<path style=" stroke:none;fill-rule:evenodd;fill:rgb(1.960754%,1.960754%,0%);fill-opacity:1;" d="M 267.019531 550.101563 C 264.015625 550.070313 261.007813 550.035156 258 550 C 250.601563 548.03125 246.800781 543.226563 246.683594 535.5625 C 246.546875 526.402344 246.589844 517.238281 246.246094 508.085938 C 246.105469 504.292969 248.328125 504.855469 250.6875 504.691406 C 253.5625 504.496094 254.855469 505.125 254.78125 508.449219 C 254.589844 517.101563 254.664063 525.773438 254.90625 534.429688 C 255.046875 539.714844 257.671875 542.183594 262.558594 542.367188 C 268.019531 542.574219 270.652344 540.144531 270.789063 534.125 C 270.984375 525.632813 271.0625 517.125 270.789063 508.640625 C 270.675781 505.089844 272.078125 504.699219 275.078125 504.636719 C 278.296875 504.570313 279.34375 505.433594 279.238281 508.761719 C 278.953125 517.582031 279.25 526.421875 278.9375 535.242188 C 278.617188 544.234375 275.703125 547.59375 267.019531 550.101563 "/>
<path style=" stroke:none;fill-rule:evenodd;fill:rgb(1.960754%,1.960754%,0%);fill-opacity:1;" d="M 572.835938 539.191406 C 571.503906 539.191406 570.140625 539.382813 568.847656 539.15625 C 565.304688 538.535156 563.84375 540.222656 562.949219 543.453125 C 562.378906 545.519531 562.652344 548.613281 559.878906 549.210938 C 557.707031 549.675781 554.816406 550.320313 553.167969 548.753906 C 551.960938 547.605469 553.730469 545.371094 554.316406 543.707031 C 558.460938 531.953125 562.851563 520.285156 566.839844 508.480469 C 567.917969 505.289063 569.554688 504.585938 572.613281 504.652344 C 575.523438 504.714844 577.394531 505.007813 578.539063 508.320313 C 582.785156 520.5625 587.46875 532.652344 591.851563 544.847656 C 592.320313 546.160156 594.332031 548.507813 592.195313 549.019531 C 589.660156 549.628906 586.34375 550.734375 584.003906 547.898438 C 583.699219 547.53125 583.632813 546.980469 583.445313 546.515625 C 580.507813 539.191406 580.507813 539.191406 572.835938 539.191406 "/>
<path style=" stroke:none;fill-rule:evenodd;fill:rgb(1.960754%,1.960754%,0%);fill-opacity:1;" d="M 164.859375 506.328125 L 164.859375 547.667969 C 164.695313 547.667969 164.527344 547.667969 164.363281 547.671875 L 164.363281 506.136719 C 164.527344 506.203125 164.695313 506.265625 164.859375 506.328125 "/>
<path style=" stroke:none;fill-rule:evenodd;fill:rgb(47.068787%,42.747498%,64.646912%);fill-opacity:1;" d="M 315.136719 450.183594 C 320.277344 451.914063 325.554688 450.5 330.757813 450.855469 C 333.214844 451.023438 335.679688 451.058594 338.140625 451.15625 C 328.4375 452.546875 318.691406 451.640625 307.890625 452.1875 C 310.640625 449.660156 312.914063 450.035156 315.136719 450.183594 "/>
<path style=" stroke:none;fill-rule:evenodd;fill:rgb(88.671875%,29.026794%,26.268005%);fill-opacity:1;" d="M 373.125 179.929688 C 370.488281 180.703125 367.5625 179.046875 365.054688 180.890625 C 360.921875 180.703125 356.808594 180.402344 352.84375 179.109375 C 352.964844 178.5 353.570313 178.4375 353.960938 178.128906 C 360.375 178.421875 366.808594 178.558594 373.125 179.929688 "/>
<path style=" stroke:none;fill-rule:evenodd;fill:rgb(97.264099%,97.264099%,97.264099%);fill-opacity:1;" d="M 226.316406 361.28125 L 254.890625 361.28125 C 254.886719 361.449219 254.886719 361.613281 254.882813 361.78125 L 226.148438 361.78125 C 226.207031 361.613281 226.261719 361.449219 226.316406 361.28125 "/>
<path style=" stroke:none;fill-rule:evenodd;fill:rgb(90.625%,46.655273%,44.700623%);fill-opacity:1;" d="M 132.144531 451.171875 C 133.261719 452.375 134.90625 451.476563 136.148438 452.171875 C 132.054688 453.476563 127.90625 452.824219 123.277344 453.03125 C 126.121094 449.355469 129.542969 452.808594 132.144531 451.171875 "/>
<path style=" stroke:none;fill-rule:evenodd;fill:rgb(91.40625%,50.976563%,49.021912%);fill-opacity:1;" d="M 348.09375 178.875 C 345.945313 179.011719 343.777344 179.347656 341.765625 178.203125 C 342.144531 177.179688 343.300781 177.746094 343.898438 177.171875 C 345.691406 176.984375 347.488281 176.773438 349.113281 177.855469 C 349.066406 178.488281 348.441406 178.546875 348.09375 178.875 "/>
<path style=" stroke:none;fill-rule:evenodd;fill:rgb(88.28125%,33.325195%,30.589294%);fill-opacity:1;" d="M 343.898438 177.171875 C 343.1875 177.515625 342.476563 177.859375 341.765625 178.203125 C 340.367188 178.09375 338.964844 177.984375 337.566406 177.871094 C 337.574219 177.640625 337.582031 177.40625 337.589844 177.171875 "/>
<path style=" stroke:none;fill-rule:evenodd;fill:rgb(85.9375%,16.088867%,13.330078%);fill-opacity:1;" d="M 348.09375 178.875 C 348.433594 178.535156 348.773438 178.195313 349.113281 177.855469 C 350.730469 177.945313 352.34375 178.035156 353.960938 178.128906 C 353.585938 178.453125 353.214844 178.78125 352.84375 179.109375 C 351.257813 179.03125 349.675781 178.953125 348.09375 178.875 "/>
<path style=" stroke:none;fill-rule:evenodd;fill:rgb(1.960754%,1.960754%,0%);fill-opacity:1;" d="M 101.847656 331.882813 C 98.96875 334.382813 95.425781 336.015625 91.730469 337.167969 C 78.542969 341.28125 67.324219 333.675781 68.273438 319.980469 C 69.707031 299.316406 78.761719 282.066406 95.128906 269.03125 C 98.675781 266.210938 102.914063 264.601563 107.414063 263.796875 C 119.941406 261.558594 128.261719 268.609375 128.066406 284.589844 C 125.425781 301.355469 117.226563 318.523438 101.847656 331.882813 M 159.011719 268.574219 C 158.59375 253.539063 149.390625 243.738281 134.589844 241.59375 C 121.402344 239.683594 109.609375 243.726563 98.429688 250.289063 C 96.15625 251.625 94.050781 253.429688 90.800781 253.894531 C 92.371094 250.429688 93.707031 247.476563 95.335938 243.878906 C 86.558594 243.878906 78.722656 244.113281 70.910156 243.777344 C 67.128906 243.613281 65.445313 244.945313 63.96875 248.332031 C 45.175781 291.480469 26.21875 334.558594 7.3125 377.660156 C 3.660156 385.996094 0.0625 394.355469 -3.808594 403.273438 C 5.339844 403.273438 13.816406 403.121094 22.28125 403.347656 C 25.71875 403.441406 27.550781 402.53125 28.984375 399.140625 C 35.777344 383.050781 42.886719 367.09375 49.949219 351.117188 C 50.96875 348.8125 51.546875 346.21875 53.582031 344.113281 C 56.871094 351.558594 61.863281 356.964844 69.320313 359.65625 C 78.050781 362.8125 86.96875 362.636719 95.871094 360.394531 C 112.246094 356.273438 124.765625 346.265625 135.347656 333.695313 C 151.144531 314.933594 159.695313 293.304688 159.011719 268.574219 "/>
<path style=" stroke:none;fill-rule:evenodd;fill:rgb(1.960754%,1.960754%,0%);fill-opacity:1;" d="M 359.488281 331.675781 C 357.90625 333.097656 355.921875 334.140625 353.996094 335.09375 C 347.152344 338.476563 339.996094 340.332031 333.117188 335.765625 C 326.050781 331.074219 324.546875 323.6875 325.835938 315.851563 C 328.726563 298.230469 336.390625 283.019531 349.816406 271.027344 C 354.226563 267.085938 359.5 264.625 365.417969 263.691406 C 377.398438 261.796875 385.730469 268.953125 385.503906 283.832031 C 383.078125 301.101563 374.613281 318.121094 359.488281 331.675781 M 380.839844 241.335938 C 368.761719 242.734375 358.484375 248.253906 347.710938 255.425781 C 349.203125 251.9375 350.152344 249.328125 351.414063 246.882813 C 352.769531 244.253906 351.753906 243.816406 349.292969 243.847656 C 342.300781 243.941406 335.292969 244.113281 328.3125 243.785156 C 324.585938 243.605469 322.863281 244.804688 321.359375 248.269531 C 304.066406 288.066406 286.570313 327.773438 269.144531 367.511719 C 264.015625 379.199219 258.933594 390.902344 253.839844 402.570313 C 254.484375 402.921875 254.753906 403.199219 255.023438 403.199219 C 260.855469 403.242188 266.78125 402.582031 272.488281 403.425781 C 281.75 404.796875 286.121094 401.253906 289.414063 392.503906 C 295.574219 376.125 303.261719 360.320313 310.621094 343.574219 C 317.789063 359.378906 330.601563 362.941406 345.644531 361.742188 C 352.15625 361.222656 358.464844 359.515625 364.25 356.4375 C 392.265625 341.539063 408.4375 317.878906 414.964844 287.234375 C 415.863281 283.019531 416.386719 278.679688 416.578125 274.371094 C 417.601563 251.730469 403.367188 238.734375 380.839844 241.335938 "/>
<path style=" stroke:none;fill-rule:evenodd;fill:rgb(1.960754%,1.960754%,0%);fill-opacity:1;" d="M -7.46875 283.101563 C -9.84375 302.4375 -18.457031 318.890625 -33.414063 331.640625 C -38.175781 335.699219 -43.859375 338.121094 -50.296875 338.257813 C -58.613281 338.492188 -65.082031 333.519531 -66.921875 325.386719 C -67.285156 323.769531 -67.679688 322.054688 -67.511719 320.445313 C -65.203125 298.3125 -56.003906 280.023438 -37.242188 267.285156 C -34.964844 265.742188 -32.140625 264.769531 -29.425781 264.140625 C -15.855469 260.976563 -5.769531 269.28125 -7.46875 283.101563 M -0.566406 241.628906 C -12.046875 239.914063 -22.722656 242.515625 -32.824219 247.933594 C -35.375 249.296875 -37.90625 250.691406 -41.511719 252.652344 C -40.734375 250.941406 -40.480469 250.402344 -40.238281 249.855469 C -33.484375 234.472656 -26.789063 219.054688 -19.917969 203.71875 C -18.574219 200.714844 -18.71875 199.710938 -22.351563 199.824219 C -29.679688 200.050781 -37.027344 200.097656 -44.347656 199.804688 C -48.027344 199.65625 -49.8125 200.753906 -51.335938 204.273438 C -66.808594 239.996094 -82.511719 275.617188 -98.148438 311.265625 C -105.082031 327.070313 -112.015625 342.871094 -119.167969 359.179688 C -110.132813 359.179688 -101.671875 359.117188 -93.210938 359.222656 C -90.992188 359.246094 -90.480469 357.863281 -89.796875 356.292969 C -87.625 351.289063 -85.378906 346.316406 -82.773438 340.464844 C -77.847656 352.753906 -71.800781 358.648438 -62.175781 360.8125 C -54.578125 362.519531 -46.988281 362.390625 -39.441406 360.328125 C -23.753906 356.050781 -11.132813 346.960938 -1.066406 334.585938 C 14.359375 315.621094 24.078125 294.164063 23.773438 269.214844 C 23.585938 253.867188 14.386719 243.863281 -0.566406 241.628906 "/>
<path style=" stroke:none;fill-rule:evenodd;fill:rgb(1.960754%,1.960754%,0%);fill-opacity:1;" d="M 538.835938 537.820313 C 537.441406 541.238281 527.058594 543.695313 523.96875 541.726563 C 522.71875 540.933594 523.164063 539.65625 523.148438 538.558594 C 523.105469 534.742188 523.132813 530.929688 523.132813 527.113281 C 523.132813 524.625 522.789063 522.074219 523.226563 519.664063 C 523.679688 517.175781 521.128906 513.632813 524.855469 512.296875 C 529.667969 510.5625 537.382813 513.152344 538.945313 516.984375 C 541.742188 523.859375 541.628906 530.96875 538.835938 537.820313 M 548.363281 518.621094 C 546.246094 509.132813 541.1875 505.132813 531.574219 504.835938 C 527.089844 504.695313 522.597656 504.84375 518.109375 504.714844 C 515.957031 504.652344 514.789063 504.949219 514.828125 507.609375 C 515.023438 520.734375 515.023438 533.867188 515.09375 546.996094 C 516.589844 547.308594 518.09375 547.445313 519.585938 547.5 C 520.96875 547.445313 522.332031 547.457031 523.667969 547.492188 C 526.089844 547.421875 528.421875 547.308594 530.546875 547.523438 C 528.414063 547.679688 526.089844 547.558594 523.667969 547.492188 C 522.328125 547.53125 520.964844 547.550781 519.585938 547.5 C 518.09375 547.558594 516.585938 547.699219 515.082031 548.003906 C 515.195313 549.898438 516.691406 549.34375 517.691406 549.347656 C 522.84375 549.367188 528.003906 549.398438 533.152344 549.21875 C 540.230469 548.972656 544.96875 545.324219 547.445313 538.742188 C 549.929688 532.148438 549.863281 525.335938 548.363281 518.621094 "/>
<path style=" stroke:none;fill-rule:evenodd;fill:rgb(1.960754%,1.960754%,0%);fill-opacity:1;" d="M 306.054688 531.867188 C 298.410156 531.925781 298.410156 532.078125 300.859375 524.800781 C 301.789063 522.027344 302.746094 519.257813 304.132813 515.195313 C 305.921875 520.378906 307.164063 524.3125 308.648438 528.152344 C 309.714844 530.910156 309.214844 531.84375 306.054688 531.867188 M 309.441406 506.875 C 308.238281 503.535156 305.652344 505.015625 303.585938 504.792969 C 301.636719 504.582031 299.816406 504.449219 298.878906 507.152344 C 294.035156 521.089844 288.96875 534.953125 283.78125 549.402344 C 287.449219 548.472656 291.539063 551.804688 293.550781 546.585938 C 296.398438 539.179688 296.4375 539.195313 304.550781 539.191406 C 306.050781 539.191406 307.566406 539.34375 309.042969 539.15625 C 311.675781 538.828125 312.800781 540.035156 313.65625 542.4375 C 316.375 550.066406 316.476563 550.03125 324.886719 548.902344 C 319.703125 534.84375 314.496094 520.886719 309.441406 506.875 "/>
<path style=" stroke:none;fill-rule:evenodd;fill:rgb(1.960754%,1.960754%,0%);fill-opacity:1;" d="M 434.023438 531.835938 C 424.339844 531.738281 426.375 532.121094 428.710938 524.835938 C 429.605469 522.03125 430.554688 519.246094 431.929688 515.105469 C 433.808594 520.519531 435.089844 524.582031 436.636719 528.539063 C 437.765625 531.429688 436.605469 531.859375 434.023438 531.835938 M 437.546875 507.390625 C 436.410156 504.15625 434.234375 504.773438 432.019531 504.761719 C 429.78125 504.746094 427.652344 504.238281 426.578125 507.492188 C 423.25 517.578125 419.488281 527.515625 415.914063 537.515625 C 414.5625 541.304688 413.257813 545.109375 411.589844 549.894531 C 415.464844 548.226563 419.460938 551.855469 421.386719 546.660156 C 424.171875 539.144531 424.304688 539.191406 432.324219 539.191406 C 433.65625 539.191406 435.003906 539.339844 436.3125 539.160156 C 439.277344 538.757813 440.695313 539.90625 441.652344 542.832031 C 444.019531 550.054688 444.195313 550 452.738281 548.902344 C 447.546875 534.808594 442.390625 521.152344 437.546875 507.390625 "/>
<path style=" stroke:none;fill-rule:evenodd;fill:rgb(1.960754%,1.960754%,0%);fill-opacity:1;" d="M 78.101563 531.386719 C 79.832031 526.222656 81.5 521.25 83.515625 515.25 C 85.566406 521.101563 87.28125 526 89.167969 531.386719 Z M 88.785156 506.660156 C 87.609375 503.476563 84.832031 505.058594 82.734375 504.785156 C 80.929688 504.550781 79.21875 504.503906 78.378906 506.90625 C 73.492188 520.863281 68.472656 534.777344 63.382813 549.03125 C 71.753906 549.730469 71.753906 549.730469 72.992188 546.589844 C 75.914063 539.195313 75.914063 539.195313 83.996094 539.191406 C 85.328125 539.191406 86.6875 539.359375 87.992188 539.15625 C 91.078125 538.675781 92.285156 540.164063 93.230469 542.945313 C 95.714844 550.246094 95.859375 550.199219 104.269531 548.800781 C 99.09375 534.710938 93.949219 520.679688 88.785156 506.660156 "/>
<path style=" stroke:none;fill-rule:evenodd;fill:rgb(1.960754%,1.960754%,0%);fill-opacity:1;" d="M 578.265625 531.660156 L 567.085938 531.660156 C 568.867188 526.300781 570.550781 521.238281 572.558594 515.199219 C 574.605469 521.097656 576.320313 526.042969 578.265625 531.660156 "/>
<path style=" stroke:none;fill-rule:evenodd;fill:rgb(1.960754%,1.960754%,0%);fill-opacity:1;" d="M -1.796875 531.453125 C -0.0976563 526.328125 1.566406 521.3125 3.554688 515.324219 C 4.675781 518.429688 5.484375 520.558594 6.21875 522.710938 C 9.542969 532.480469 9.539063 532.484375 -1.796875 531.453125 M 22.871094 544.824219 C 18.5625 532.773438 13.984375 520.820313 9.761719 508.742188 C 8.617188 505.476563 6.910156 504.6875 3.609375 504.597656 C 0.0429688 504.496094 -1.203125 505.910156 -2.265625 509.003906 C -6.25 520.632813 -10.5625 532.152344 -14.652344 543.75 C -15.234375 545.402344 -17.023438 547.613281 -15.773438 548.773438 C -14.109375 550.3125 -11.222656 549.695313 -9.058594 549.207031 C -6.316406 548.589844 -6.570313 545.511719 -6.011719 543.4375 C -5.132813 540.183594 -3.632813 538.542969 -0.101563 539.15625 C 1.191406 539.382813 2.554688 539.191406 4.804688 539.191406 C 10.300781 537.472656 13.523438 540.363281 14.511719 546.523438 C 14.585938 547.003906 14.734375 547.550781 15.039063 547.910156 C 17.398438 550.703125 20.703125 549.644531 23.242188 549.007813 C 25.339844 548.480469 23.347656 546.144531 22.871094 544.824219 "/>
</g>
</svg>
