<?xml version="1.0" encoding="UTF-8"?>
<!DOCTYPE svg PUBLIC "-//W3C//DTD SVG 1.1//EN" "http://www.w3.org/Graphics/SVG/1.1/DTD/svg11.dtd">
<svg xmlns="http://www.w3.org/2000/svg" version="1.1" width="2134px" height="2134px" style="shape-rendering:geometricPrecision; text-rendering:geometricPrecision; image-rendering:optimizeQuality; fill-rule:evenodd; clip-rule:evenodd" xmlns:xlink="http://www.w3.org/1999/xlink">
<g><path style="opacity:0.989" fill="#01667d" d="M 123.5,636.5 C 183.961,665.897 244.294,695.564 304.5,725.5C 301.723,782.81 299.056,840.144 296.5,897.5C 265.46,888.323 234.46,878.99 203.5,869.5C 207.858,989.797 234.691,1104.8 284,1214.5C 305.251,1261.68 329.584,1307.01 357,1350.5C 357.18,1352.49 357.014,1354.49 356.5,1356.5C 339.137,1356.84 321.804,1356.34 304.5,1355C 300.084,1352.59 296.251,1349.42 293,1345.5C 235.458,1271.09 193.125,1188.43 166,1097.5C 134.128,992.895 118.628,885.895 119.5,776.5C 119.871,729.794 121.205,683.127 123.5,636.5 Z"/></g>
<g><path style="opacity:0.979" fill="#00667d" d="M 550.5,698.5 C 564.5,698.5 578.5,698.5 592.5,698.5C 593.639,715.834 593.806,733.167 593,750.5C 595.144,757.637 599.978,761.471 607.5,762C 627.843,763.542 648.176,765.209 668.5,767C 730.051,774.218 765.884,808.385 776,869.5C 780.099,928.683 755.599,971.183 702.5,997C 690.9,1001.57 678.9,1004.57 666.5,1006C 627.846,1007.33 589.18,1007.83 550.5,1007.5C 550.5,904.5 550.5,801.5 550.5,698.5 Z M 597.5,794.5 C 616.171,795.142 634.837,795.975 653.5,797C 695.042,800.695 721.875,822.529 734,862.5C 744.294,905.738 729.794,937.571 690.5,958C 683.08,961.14 675.414,963.473 667.5,965C 643.863,966.582 620.196,966.915 596.5,966C 592.296,964.772 590.13,961.939 590,957.5C 589.692,905.831 590.025,854.165 591,802.5C 591.583,798.428 593.75,795.761 597.5,794.5 Z"/></g>
<g><path style="opacity:0.971" fill="#00667d" d="M 1352.5,705.5 C 1364.5,705.5 1376.5,705.5 1388.5,705.5C 1388.5,727.5 1388.5,749.5 1388.5,771.5C 1417.5,771.5 1446.5,771.5 1475.5,771.5C 1475.5,781.5 1475.5,791.5 1475.5,801.5C 1448.83,801.333 1422.16,801.5 1395.5,802C 1393.33,802.833 1391.83,804.333 1391,806.5C 1390.55,852.847 1391.21,899.181 1393,945.5C 1394.5,965.667 1405.33,976.5 1425.5,978C 1476.16,979.114 1526.83,979.947 1577.5,980.5C 1587.82,979.732 1598.15,979.399 1608.5,979.5C 1608.5,1060.5 1608.5,1141.5 1608.5,1222.5C 1597.45,1222.81 1586.45,1222.48 1575.5,1221.5C 1574.67,1153.5 1574.17,1085.5 1574,1017.5C 1571.62,1011.81 1567.29,1009.14 1561,1009.5C 1547.47,1010.77 1533.97,1010.77 1520.5,1009.5C 1475.98,1010.22 1444.15,1030.55 1425,1070.5C 1411.43,1114.13 1422.93,1149.63 1459.5,1177C 1474.1,1186.37 1490.1,1191.2 1507.5,1191.5C 1523.17,1190.45 1538.83,1189.45 1554.5,1188.5C 1554.67,1195.84 1554.5,1203.17 1554,1210.5C 1552.98,1215.71 1550.15,1219.54 1545.5,1222C 1502.6,1229.94 1463.94,1220.61 1429.5,1194C 1389.76,1156.1 1378.26,1110.93 1395,1058.5C 1399.64,1045.72 1405.14,1033.39 1411.5,1021.5C 1409.38,1019.88 1407.38,1018.05 1405.5,1016C 1372.34,1004.18 1354.84,980.682 1353,945.5C 1352.5,865.501 1352.33,785.501 1352.5,705.5 Z"/></g>
<g><path style="opacity:0.971" fill="#00667d" d="M 922.5,763.5 C 969.304,761.827 1007.14,779.16 1036,815.5C 1045.91,829.658 1052.24,845.325 1055,862.5C 1057.32,872.747 1058.65,883.081 1059,893.5C 1057.77,895.726 1055.94,897.226 1053.5,898C 995.178,899.399 936.845,899.899 878.5,899.5C 878.5,892.167 878.5,884.833 878.5,877.5C 919.835,877.667 961.168,877.5 1002.5,877C 1009.82,876.279 1017.16,875.779 1024.5,875.5C 1018.49,832.322 994.161,805.822 951.5,796C 910.549,790.576 876.716,803.41 850,834.5C 827.026,869.246 826.692,904.246 849,939.5C 870.063,966.116 897.563,980.783 931.5,983.5C 954.962,982.264 975.629,974.097 993.5,959C 1000.36,951.802 1007.53,944.968 1015,938.5C 1022.68,945.345 1030.18,952.345 1037.5,959.5C 1014.03,990.743 982.695,1008.24 943.5,1012C 890.146,1016.73 847.979,997.563 817,954.5C 795.915,918.325 792.915,880.659 808,841.5C 830.905,793.095 869.071,767.095 922.5,763.5 Z"/></g>
<g><path style="opacity:0.976" fill="#00667d" d="M 1146.5,767.5 C 1204.5,767.5 1262.5,767.5 1320.5,767.5C 1320.5,780.5 1320.5,793.5 1320.5,806.5C 1263.5,806.333 1206.5,806.5 1149.5,807C 1128.53,807.797 1118.7,818.63 1120,839.5C 1122.57,850.405 1129.07,857.905 1139.5,862C 1145.33,864.099 1151.33,865.432 1157.5,866C 1194.51,867.141 1231.51,868.474 1268.5,870C 1299.48,875.982 1319.32,894.148 1328,924.5C 1331.91,942.589 1329.25,959.589 1320,975.5C 1313.17,983.329 1306,990.829 1298.5,998C 1322.63,1012.39 1338.46,1033.22 1346,1060.5C 1364.8,1128.04 1342.97,1177.21 1280.5,1208C 1262.52,1215.26 1243.86,1219.6 1224.5,1221C 1208.17,1221.33 1191.83,1221.67 1175.5,1222C 1171.26,1223.24 1168.76,1226.08 1168,1230.5C 1167.83,1233.33 1167.67,1236.17 1167.5,1239C 1168.67,1259.17 1168.67,1279.33 1167.5,1299.5C 1156.83,1299.5 1146.17,1299.5 1135.5,1299.5C 1135.5,1204.83 1135.5,1110.17 1135.5,1015.5C 1119.5,1014.8 1103.5,1014.13 1087.5,1013.5C 1087.5,1000.83 1087.5,988.167 1087.5,975.5C 1145.17,974.824 1202.83,973.991 1260.5,973C 1278.15,969.856 1287.48,959.356 1288.5,941.5C 1287.79,925.899 1280.46,914.732 1266.5,908C 1263.9,907.08 1261.23,906.413 1258.5,906C 1224.17,904.943 1189.84,903.943 1155.5,903C 1134.21,902.69 1116.04,895.19 1101,880.5C 1085.13,858.394 1082.46,834.728 1093,809.5C 1099.32,793.51 1110.16,781.677 1125.5,774C 1132.64,771.894 1139.64,769.727 1146.5,767.5 Z M 1174.5,1012.5 C 1194.99,1013.78 1215.49,1013.78 1236,1012.5C 1270.67,1012.84 1295,1028.84 1309,1060.5C 1323.33,1096.94 1318.66,1130.6 1295,1161.5C 1280.31,1178.26 1261.81,1187.1 1239.5,1188C 1219.46,1187.95 1199.46,1188.12 1179.5,1188.5C 1175.31,1188.23 1171.81,1186.57 1169,1183.5C 1167.54,1142.08 1166.38,1100.58 1165.5,1059C 1165.67,1045.5 1165.83,1032 1166,1018.5C 1167.94,1015.12 1170.78,1013.12 1174.5,1012.5 Z"/></g>
<g><path style="opacity:0.988" fill="#01667d" d="M 218.5,886.5 C 269.773,903.758 321.106,920.924 372.5,938C 377.568,939.628 380.068,943.128 380,948.5C 382.168,984.858 384.668,1021.19 387.5,1057.5C 387.167,1058.83 386.833,1060.17 386.5,1061.5C 375.833,1059.17 365.167,1056.83 354.5,1054.5C 354.167,1055.33 353.833,1056.17 353.5,1057C 376.373,1191.15 423.373,1315.98 494.5,1431.5C 475.319,1435.06 455.985,1436.89 436.5,1437C 434.5,1436 432.5,1435 430.5,1434C 332.165,1312.12 268.665,1173.62 240,1018.5C 231.856,974.636 224.689,930.636 218.5,886.5 Z"/></g>
<g><path style="opacity:0.979" fill="#00667d" d="M 1636.5,920.5 C 1647.85,921.034 1659.18,921.701 1670.5,922.5C 1670.33,939.503 1670.5,956.503 1671,973.5C 1672.69,978.522 1676.19,981.355 1681.5,982C 1706.83,982.5 1732.16,982.667 1757.5,982.5C 1757.5,993.5 1757.5,1004.5 1757.5,1015.5C 1728.17,1015.5 1698.83,1015.5 1669.5,1015.5C 1669.33,1059.5 1669.5,1103.5 1670,1147.5C 1671.89,1175.39 1686.72,1190.89 1714.5,1194C 1730.49,1195.09 1746.49,1195.92 1762.5,1196.5C 1762.5,1206.17 1762.5,1215.83 1762.5,1225.5C 1745.83,1225.67 1729.16,1225.5 1712.5,1225C 1691.38,1224.07 1672.38,1217.41 1655.5,1205C 1644.96,1195.08 1638.79,1182.92 1637,1168.5C 1635.18,1085.84 1635.01,1003.17 1636.5,920.5 Z"/></g>
<g><path style="opacity:0.976" fill="#00667d" d="M 1785.5,920.5 C 1796.5,920.5 1807.5,920.5 1818.5,920.5C 1818.5,952.167 1818.5,983.833 1818.5,1015.5C 1819.82,1015.33 1820.99,1015.66 1822,1016.5C 1832.84,998.649 1848.68,988.149 1869.5,985C 1910.22,976.579 1945.06,987.079 1974,1016.5C 1985.01,1029.86 1991.68,1045.19 1994,1062.5C 1995.54,1114.49 1995.87,1166.49 1995,1218.5C 1992.24,1224.61 1987.41,1227.28 1980.5,1226.5C 1972.52,1227.44 1967.68,1224.11 1966,1216.5C 1965.82,1177.49 1965.15,1138.49 1964,1099.5C 1964.89,1077.74 1959.56,1057.74 1948,1039.5C 1923.57,1011.85 1894.74,1006.02 1861.5,1022C 1835.48,1038.2 1821.31,1061.7 1819,1092.5C 1818.09,1134.87 1817.09,1177.2 1816,1219.5C 1814.52,1222.66 1812.02,1224.5 1808.5,1225C 1800.81,1225.6 1793.15,1225.43 1785.5,1224.5C 1785.5,1123.17 1785.5,1021.83 1785.5,920.5 Z"/></g>
<g><path style="opacity:0.987" fill="#01667d" d="M 369.5,1071.5 C 410.893,1081.68 452.226,1092.18 493.5,1103C 500.257,1105.32 503.424,1110.15 503,1117.5C 507.703,1218.69 529.37,1316.02 568,1409.5C 576.618,1430.07 585.785,1450.4 595.5,1470.5C 581.784,1476.02 567.784,1480.85 553.5,1485C 550.12,1485.94 547.12,1485.27 544.5,1483C 521.792,1449.09 499.959,1414.59 479,1379.5C 426.332,1282.67 389.832,1180 369.5,1071.5 Z"/></g>
<g><path style="opacity:0.985" fill="#01667d" d="M 534.5,1198.5 C 562.519,1203.8 590.519,1209.3 618.5,1215C 624.588,1216.09 628.421,1219.59 630,1225.5C 631.256,1308.22 638.756,1390.39 652.5,1472C 652.152,1476.69 649.819,1480.02 645.5,1482C 639.044,1485.71 632.377,1489.04 625.5,1492C 621.328,1492.87 618.162,1491.37 616,1487.5C 589.327,1438.82 569.327,1387.49 556,1333.5C 543.632,1289.29 536.466,1244.29 534.5,1198.5 Z"/></g>
<g><path style="opacity:0.98" fill="#01667d" d="M 673.5,1264.5 C 696.48,1268.04 719.48,1271.54 742.5,1275C 743.428,1275.39 744.095,1276.05 744.5,1277C 733.333,1318.5 722.167,1360 711,1401.5C 707.031,1415.65 704.031,1429.99 702,1444.5C 695.466,1456.74 685.466,1463.74 672,1465.5C 666.966,1398.45 667.466,1331.45 673.5,1264.5 Z"/></g>
<g><path style="opacity:0.957" fill="#01667d" d="M 799.5,1291.5 C 816.684,1293.24 833.684,1296.07 850.5,1300C 828,1322.5 805.5,1345 783,1367.5C 772.429,1379.65 762.095,1391.98 752,1404.5C 735.12,1421.38 730.787,1418.71 739,1396.5C 756,1364.5 773,1332.5 790,1300.5C 792.43,1296.57 795.597,1293.57 799.5,1291.5 Z"/></g>
<g><path style="opacity:0.938" fill="#00667d" d="M 1914.5,1297.5 C 1919.83,1297.5 1925.17,1297.5 1930.5,1297.5C 1930.64,1325.22 1930.47,1352.89 1930,1380.5C 1942.43,1365.4 1955.59,1350.9 1969.5,1337C 1975.83,1336.33 1982.17,1336.33 1988.5,1337C 1976.17,1350 1963.83,1363 1951.5,1376C 1964.83,1393.67 1978.17,1411.33 1991.5,1429C 1984.83,1429.67 1978.17,1429.67 1971.5,1429C 1961.53,1414.9 1951.2,1401.07 1940.5,1387.5C 1937.21,1389.45 1934.21,1391.78 1931.5,1394.5C 1930.5,1406.15 1930.17,1417.81 1930.5,1429.5C 1925.17,1429.5 1919.83,1429.5 1914.5,1429.5C 1914.5,1385.5 1914.5,1341.5 1914.5,1297.5 Z"/></g>
<g><path style="opacity:0.909" fill="#01667d" d="M 922.5,1304.5 C 932.407,1305.11 942.074,1306.95 951.5,1310C 913.24,1322.86 874.907,1335.53 836.5,1348C 832.502,1348.71 831.835,1347.71 834.5,1345C 857.556,1330.3 881.889,1317.97 907.5,1308C 912.545,1306.43 917.545,1305.26 922.5,1304.5 Z"/></g>
<g><path style="opacity:0.953" fill="#00667d" d="M 1549.5,1315.5 C 1552.83,1315.5 1556.17,1315.5 1559.5,1315.5C 1559.5,1322.5 1559.5,1329.5 1559.5,1336.5C 1568.5,1336.5 1577.5,1336.5 1586.5,1336.5C 1586.5,1340.5 1586.5,1344.5 1586.5,1348.5C 1577.5,1348.5 1568.5,1348.5 1559.5,1348.5C 1559.07,1368.54 1559.57,1388.54 1561,1408.5C 1562.5,1412.67 1565.33,1415.5 1569.5,1417C 1575.29,1417.79 1580.95,1417.29 1586.5,1415.5C 1587.83,1419.83 1587.83,1424.17 1586.5,1428.5C 1575.63,1432.62 1564.96,1432.12 1554.5,1427C 1547.72,1421.95 1544.22,1415.11 1544,1406.5C 1543.5,1387.17 1543.33,1367.84 1543.5,1348.5C 1539.17,1348.5 1534.83,1348.5 1530.5,1348.5C 1530.19,1345.75 1530.52,1343.09 1531.5,1340.5C 1535.62,1338.36 1539.79,1336.36 1544,1334.5C 1546.3,1328.28 1548.14,1321.95 1549.5,1315.5 Z"/></g>
<g><path style="opacity:0.944" fill="#00667d" d="M 1377.5,1334.5 C 1388.61,1333.29 1398.94,1335.45 1408.5,1341C 1414.56,1346.83 1417.73,1354 1418,1362.5C 1418.5,1384.83 1418.67,1407.16 1418.5,1429.5C 1413.17,1429.5 1407.83,1429.5 1402.5,1429.5C 1402.96,1406.45 1402.46,1383.45 1401,1360.5C 1397.52,1351.83 1391.02,1347.83 1381.5,1348.5C 1364.73,1349.44 1356.23,1358.44 1356,1375.5C 1355.5,1393.5 1355.33,1411.5 1355.5,1429.5C 1350.17,1429.5 1344.83,1429.5 1339.5,1429.5C 1339.5,1398.5 1339.5,1367.5 1339.5,1336.5C 1343.85,1336.33 1348.18,1336.5 1352.5,1337C 1353.7,1340.72 1354.54,1344.55 1355,1348.5C 1360.72,1340.89 1368.22,1336.23 1377.5,1334.5 Z"/></g>
<g><path style="opacity:0.936" fill="#00667d" d="M 1474.5,1334.5 C 1497.65,1331.81 1512.49,1341.47 1519,1363.5C 1520.26,1371.11 1520.76,1378.78 1520.5,1386.5C 1499.5,1386.5 1478.5,1386.5 1457.5,1386.5C 1457.97,1405.8 1467.8,1416.14 1487,1417.5C 1496.97,1417.01 1506.47,1414.67 1515.5,1410.5C 1516.49,1415.46 1516.83,1420.46 1516.5,1425.5C 1501.46,1430.98 1486.13,1432.14 1470.5,1429C 1454.7,1424.27 1445.2,1413.77 1442,1397.5C 1438.53,1380.42 1441.2,1364.42 1450,1349.5C 1456.47,1341.52 1464.64,1336.52 1474.5,1334.5 Z M 1479.5,1347.5 C 1495.66,1348.42 1503.66,1357.09 1503.5,1373.5C 1488.15,1373.83 1472.82,1373.5 1457.5,1372.5C 1459.13,1358.77 1466.46,1350.44 1479.5,1347.5 Z"/></g>
<g><path style="opacity:0.938" fill="#00667d" d="M 1769.5,1334.5 C 1797.45,1331.87 1814.28,1344.21 1820,1371.5C 1822.36,1386.33 1820.03,1400.33 1813,1413.5C 1801.07,1428.7 1785.57,1434.2 1766.5,1430C 1750.18,1425.01 1740.02,1414.18 1736,1397.5C 1732.05,1379.48 1735.05,1362.81 1745,1347.5C 1751.91,1340.63 1760.07,1336.3 1769.5,1334.5 Z M 1770.5,1348.5 C 1788.72,1346.01 1799.55,1353.67 1803,1371.5C 1805.35,1384.06 1803.68,1396.06 1798,1407.5C 1787.63,1418.49 1775.79,1420.32 1762.5,1413C 1756.52,1407.87 1753.02,1401.37 1752,1393.5C 1750.65,1382.58 1751.65,1371.91 1755,1361.5C 1758.26,1354.73 1763.42,1350.4 1770.5,1348.5 Z"/></g>
<g><path style="opacity:0.939" fill="#00667d" d="M 1881.5,1334.5 C 1887.21,1334.31 1892.88,1334.65 1898.5,1335.5C 1897.75,1340.49 1897.09,1345.49 1896.5,1350.5C 1880.73,1346.8 1869.23,1352.14 1862,1366.5C 1861.08,1369.1 1860.41,1371.77 1860,1374.5C 1859.5,1392.83 1859.33,1411.16 1859.5,1429.5C 1854.17,1429.5 1848.83,1429.5 1843.5,1429.5C 1843.5,1398.5 1843.5,1367.5 1843.5,1336.5C 1848.17,1336.5 1852.83,1336.5 1857.5,1336.5C 1857.34,1341.57 1857.84,1346.57 1859,1351.5C 1864.44,1342.86 1871.94,1337.19 1881.5,1334.5 Z"/></g>
<g><path style="opacity:0.938" fill="#00667d" d="M 1591.5,1337.5 C 1597.23,1336.17 1603.07,1336.17 1609,1337.5C 1615.47,1361.72 1621.47,1386.06 1627,1410.5C 1633.72,1386 1641.05,1361.67 1649,1337.5C 1655.08,1336.52 1661.24,1336.19 1667.5,1336.5C 1674.56,1360.84 1681.73,1385.18 1689,1409.5C 1694.79,1385.78 1700.79,1362.12 1707,1338.5C 1709.72,1337.22 1712.72,1336.56 1716,1336.5C 1718.83,1336.67 1721.67,1336.83 1724.5,1337C 1715.77,1367.07 1707.27,1397.24 1699,1427.5C 1692.79,1429.43 1686.29,1430.1 1679.5,1429.5C 1672.04,1404.61 1664.87,1379.61 1658,1354.5C 1651.21,1379.38 1643.71,1404.04 1635.5,1428.5C 1629.28,1429.81 1623.11,1429.81 1617,1428.5C 1608.76,1397.97 1600.26,1367.63 1591.5,1337.5 Z"/></g>
</svg>
